<svg width="23" height="23" viewBox="0 0 23 23" fill="none" xmlns="http://www.w3.org/2000/svg">
<path opacity="0.4" d="M20.759 14.7424C20.7713 17.2596 18.7602 19.3085 16.2431 19.3299L16.234 19.3299L7.29295 19.3736C4.78475 19.3858 2.72677 17.3658 2.71448 14.8486L2.71444 14.8396C2.71444 14.8396 2.70035 10.8463 2.69776 8.83787C2.69682 8.46073 3.12886 8.2475 3.42504 8.48064C5.57704 10.1709 9.42575 13.2531 9.47377 13.2935C10.1169 13.8037 10.9303 14.0894 11.7603 14.0853C12.5904 14.0813 13.401 13.7877 14.039 13.2613C14.0867 13.2294 17.8198 10.2031 19.9876 8.46382C20.2824 8.22689 20.7183 8.43589 20.721 8.81211C20.7398 10.8051 20.759 14.7424 20.759 14.7424" fill="#FF8500"/>
<path d="M20.2411 5.48186C19.4525 4.01324 17.9106 3.08062 16.218 3.08889L7.21372 3.13286C5.52114 3.14113 3.98833 4.08876 3.21419 5.56501C3.04077 5.89518 3.12578 6.30529 3.41834 6.53664L10.1436 11.8623C10.6146 12.2389 11.1839 12.4247 11.7523 12.4219C11.7559 12.4219 11.7586 12.4219 11.7613 12.4219C11.764 12.4219 11.7676 12.4218 11.7703 12.4218C12.3387 12.4191 12.9062 12.2277 13.3735 11.8465L20.0464 6.45544C20.3367 6.22124 20.4177 5.81032 20.2411 5.48186" fill="#FF8500"/>
</svg>
