<svg width="23" height="23" viewBox="0 0 23 23" fill="none" xmlns="http://www.w3.org/2000/svg">
<circle cx="11.0283" cy="7.10343" r="4.31093" transform="rotate(-0.279791 11.0283 7.10343)" stroke="#C7C9D9" stroke-width="1.35336" stroke-linecap="round" stroke-linejoin="round"/>
<path fill-rule="evenodd" clip-rule="evenodd" d="M4.24066 17.4433C4.23802 17.1402 4.30433 16.8405 4.43459 16.5669C4.84347 15.7391 6.00577 15.2957 6.97103 15.0928C7.66715 14.9406 8.37314 14.8378 9.08373 14.7851C10.3992 14.6631 11.7229 14.6566 13.0395 14.7658C13.7505 14.8122 14.4574 14.908 15.1551 15.0528C16.1223 15.2463 17.2887 15.637 17.7058 16.5021C17.9732 17.0573 17.9763 17.7034 17.7144 18.2611C17.3057 19.1303 16.1432 19.5324 15.1779 19.727C14.4826 19.8853 13.7764 19.9909 13.0653 20.0429C11.9945 20.139 10.9185 20.1608 9.84474 20.1082C9.59698 20.1094 9.35749 20.1106 9.1095 20.0622C8.40053 20.0177 7.69601 19.919 7.00212 19.767C6.0267 19.5818 4.86859 19.191 4.44318 18.3259C4.31092 18.0504 4.24173 17.7489 4.24066 17.4433Z" stroke="#C7C9D9" stroke-width="1.35336" stroke-linecap="round" stroke-linejoin="round"/>
</svg>
