<svg width="26" height="28" viewBox="0 0 26 28" fill="none" xmlns="http://www.w3.org/2000/svg">
<g filter="url(#filter0_d_1275_544)">
<path d="M7.23693 11.221L9.04139 11.2122L9.0502 13.0167L7.24574 13.0255L7.23693 11.221Z" fill="white"/>
<path d="M7.25455 14.8299L9.05901 14.8211L9.06782 16.6256L7.26336 16.6344L7.25455 14.8299Z" fill="white"/>
<path d="M12.6503 11.1946L10.8458 11.2034L10.8547 13.0078L12.6591 12.999L12.6503 11.1946Z" fill="white"/>
<path d="M10.8635 14.8123L12.6679 14.8035L12.6767 16.6079L10.8723 16.6168L10.8635 14.8123Z" fill="white"/>
<path d="M16.2592 11.1769L14.4548 11.1858L14.4636 12.9902L16.268 12.9814L16.2592 11.1769Z" fill="white"/>
<path d="M14.4724 14.7947L16.2768 14.7859L16.2857 16.5903L14.4812 16.5991L14.4724 14.7947Z" fill="white"/>
<path fill-rule="evenodd" clip-rule="evenodd" d="M18.1077 20.1904L5.47653 20.2521C4.48137 20.257 3.66812 19.4516 3.66326 18.4565L3.60158 5.82526C3.59672 4.8301 4.40207 4.01685 5.39722 4.01199L7.20168 4.00317L7.19287 2.19872L8.99733 2.1899L9.00614 3.99436L14.4195 3.96793L14.4107 2.16347L16.2152 2.15466L16.224 3.95912L18.0284 3.9503C19.0236 3.94544 19.8368 4.75079 19.8417 5.74595L19.9034 18.3772C19.9082 19.3723 19.1029 20.1856 18.1077 20.1904ZM18.0462 7.55922L18.0372 5.75476L5.40604 5.81644L5.41485 7.6209L18.0462 7.55922ZM18.0551 9.36368L18.0998 18.386L5.46772 18.4477L5.42366 9.42536L18.0551 9.36368Z" fill="white"/>
</g>
<defs>
<filter id="filter0_d_1275_544" x="-2.74052" y="-1.48511" width="30.7816" height="30.7816" filterUnits="userSpaceOnUse" color-interpolation-filters="sRGB">
<feFlood flood-opacity="0" result="BackgroundImageFix"/>
<feColorMatrix in="SourceAlpha" type="matrix" values="0 0 0 0 0 0 0 0 0 0 0 0 0 0 0 0 0 0 127 0" result="hardAlpha"/>
<feOffset dx="0.90224" dy="2.70672"/>
<feGaussianBlur stdDeviation="2.2556"/>
<feColorMatrix type="matrix" values="0 0 0 0 0 0 0 0 0 0 0 0 0 0 0 0 0 0 0.2 0"/>
<feBlend mode="normal" in2="BackgroundImageFix" result="effect1_dropShadow_1275_544"/>
<feBlend mode="normal" in="SourceGraphic" in2="effect1_dropShadow_1275_544" result="shape"/>
</filter>
</defs>
</svg>
