<svg width="17" height="19" viewBox="0 0 17 19" fill="none" xmlns="http://www.w3.org/2000/svg">
<path d="M4.23693 9.22101L6.04139 9.2122L6.0502 11.0167L4.24574 11.0255L4.23693 9.22101Z" fill="white"/>
<path d="M4.25455 12.8299L6.05901 12.8211L6.06782 14.6256L4.26336 14.6344L4.25455 12.8299Z" fill="white"/>
<path d="M9.6503 9.19457L7.84585 9.20338L7.85466 11.0078L9.65912 10.999L9.6503 9.19457Z" fill="white"/>
<path d="M7.86347 12.8123L9.66793 12.8035L9.67674 14.6079L7.87228 14.6168L7.86347 12.8123Z" fill="white"/>
<path d="M13.2592 9.17695L11.4548 9.18576L11.4636 10.9902L13.268 10.9814L13.2592 9.17695Z" fill="white"/>
<path d="M11.4724 12.7947L13.2768 12.7859L13.2857 14.5903L11.4812 14.5991L11.4724 12.7947Z" fill="white"/>
<path fill-rule="evenodd" clip-rule="evenodd" d="M15.1077 18.1904L2.47653 18.2521C1.48137 18.257 0.668119 17.4516 0.66326 16.4565L0.601577 3.82526C0.596718 2.8301 1.40207 2.01685 2.39722 2.01199L4.20168 2.00317L4.19287 0.198716L5.99733 0.189904L6.00614 1.99436L11.4195 1.96793L11.4107 0.163469L13.2152 0.154657L13.224 1.95912L15.0284 1.9503C16.0236 1.94544 16.8368 2.75079 16.8417 3.74595L16.9034 16.3772C16.9082 17.3723 16.1029 18.1856 15.1077 18.1904ZM15.0462 5.55922L15.0372 3.75476L2.40604 3.81644L2.41485 5.6209L15.0462 5.55922ZM15.0551 7.36368L15.0998 16.386L2.46772 16.4477L2.42366 7.42536L15.0551 7.36368Z" fill="white"/>
</svg>
