<svg width="186" height="89" viewBox="0 0 186 89" fill="none" xmlns="http://www.w3.org/2000/svg">
<path d="M2.69715 68.8078C2.69715 67.2728 2.99512 65.9364 3.59106 64.7987C4.20506 63.661 5.04479 62.7942 6.11026 62.1983C7.19379 61.5843 8.43082 61.2773 9.82135 61.2773C11.6633 61.2773 13.1713 61.7378 14.3451 62.6588C15.537 63.5798 16.2774 64.8168 16.5663 66.3698L15.2932 66.3698C15.0584 65.1057 14.4444 64.1125 13.4512 63.3901C12.476 62.6678 11.2661 62.3066 9.82135 62.3066C8.73782 62.3066 7.75361 62.5504 6.86873 63.038C5.98385 63.5075 5.27053 64.2389 4.72876 65.2321C4.20506 66.2073 3.9432 67.3992 3.9432 68.8078C3.9432 70.2344 4.20506 71.4353 4.72876 72.4105C5.27053 73.3857 5.98385 74.1171 6.86873 74.6047C7.75361 75.0923 8.73782 75.336 9.82135 75.336C11.2661 75.336 12.476 74.9749 13.4512 74.2525C14.4444 73.5302 15.0584 72.5369 15.2932 71.2728L16.5663 71.2728C16.2774 72.8078 15.537 74.0448 14.3451 74.9839C13.1532 75.923 11.6453 76.3925 9.82135 76.3925C8.43082 76.3925 7.19379 76.0855 6.11026 75.4715C5.04479 74.8575 4.20506 73.9816 3.59106 72.8439C2.99512 71.6882 2.69715 70.3428 2.69715 68.8078ZM30.6818 76.3925C29.3093 76.3925 28.0723 76.0855 26.9707 75.4715C25.8691 74.8575 25.0023 73.9816 24.3703 72.8439C23.7563 71.6882 23.4493 70.3428 23.4493 68.8078C23.4493 67.2908 23.7653 65.9635 24.3973 64.8258C25.0294 63.6701 25.8962 62.7942 26.9978 62.1983C28.1175 61.5843 29.3635 61.2773 30.736 61.2773C32.1085 61.2773 33.3455 61.5843 34.4471 62.1983C35.5487 62.7942 36.4065 63.661 37.0205 64.7987C37.6525 65.9364 37.9685 67.2728 37.9685 68.8078C37.9685 70.3428 37.6525 71.6882 37.0205 72.8439C36.3884 73.9816 35.5125 74.8575 34.3929 75.4715C33.2913 76.0855 32.0543 76.3925 30.6818 76.3925ZM30.6818 75.309C31.7473 75.309 32.7405 75.0742 33.6615 74.6047C34.6006 74.1171 35.35 73.3857 35.9098 72.4105C36.4697 71.4353 36.7496 70.2344 36.7496 68.8078C36.7496 67.3992 36.4697 66.2073 35.9098 65.2321C35.35 64.257 34.6096 63.5346 33.6886 63.0651C32.7676 62.5775 31.7744 62.3337 30.7089 62.3337C29.6434 62.3337 28.6502 62.5775 27.7292 63.0651C26.8263 63.5346 26.0949 64.257 25.5351 65.2321C24.9752 66.2073 24.6953 67.3992 24.6953 68.8078C24.6953 70.2344 24.9662 71.4353 25.508 72.4105C26.0678 73.3857 26.7992 74.1171 27.7021 74.6047C28.6231 75.0742 29.6163 75.309 30.6818 75.309ZM62.9854 61.1689C64.6648 61.1689 66.0373 61.7107 67.1028 62.7942C68.1682 63.8597 68.701 65.4488 68.701 67.5617L68.701 76.1758L67.5091 76.1758L67.5091 67.643C67.5091 65.8913 67.0847 64.5549 66.2359 63.6339C65.4052 62.6949 64.2585 62.2253 62.7957 62.2253C61.2788 62.2253 60.0598 62.7491 59.1388 63.7965C58.2178 64.8439 57.7573 66.3608 57.7573 68.3473L57.7573 76.1758L56.5655 76.1758L56.5655 67.643C56.5655 65.8913 56.1411 64.5549 55.2923 63.6339C54.4616 62.6949 53.3149 62.2253 51.8521 62.2253C50.3352 62.2253 49.1162 62.7491 48.1952 63.7965C47.2742 64.8439 46.8137 66.3608 46.8137 68.3473L46.8137 76.1758L45.5947 76.1758L45.5947 61.4669L46.8137 61.4669L46.8137 64.6633C47.229 63.5075 47.8972 62.6407 48.8182 62.0628C49.7573 61.4669 50.8318 61.1689 52.0417 61.1689C53.3781 61.1689 54.5248 61.5211 55.4819 62.2253C56.4571 62.9116 57.1253 63.9319 57.4865 65.2863C57.8296 63.9319 58.4977 62.9116 59.491 62.2253C60.4842 61.5211 61.649 61.1689 62.9854 61.1689ZM94.3453 61.1689C96.0247 61.1689 97.3972 61.7107 98.4627 62.7942C99.5281 63.8597 100.061 65.4488 100.061 67.5617L100.061 76.1758L98.869 76.1758L98.869 67.643C98.869 65.8913 98.4446 64.5549 97.5958 63.6339C96.7651 62.6949 95.6184 62.2253 94.1556 62.2253C92.6387 62.2253 91.4197 62.7491 90.4987 63.7965C89.5777 64.8439 89.1172 66.3608 89.1172 68.3473L89.1172 76.1758L87.9254 76.1758L87.9254 67.643C87.9254 65.8913 87.501 64.5549 86.6522 63.6339C85.8215 62.6949 84.6748 62.2253 83.212 62.2253C81.6951 62.2253 80.4761 62.7491 79.5551 63.7965C78.6341 64.8439 78.1736 66.3608 78.1736 68.3473L78.1736 76.1758L76.9546 76.1758L76.9546 61.4669L78.1736 61.4669L78.1736 64.6633C78.5889 63.5075 79.2571 62.6407 80.1781 62.0628C81.1172 61.4669 82.1917 61.1689 83.4016 61.1689C84.738 61.1689 85.8847 61.5211 86.8418 62.2253C87.817 62.9116 88.4852 63.9319 88.8464 65.2863C89.1895 63.9319 89.8576 62.9116 90.8509 62.2253C91.8441 61.5211 93.0089 61.1689 94.3453 61.1689ZM120.748 61.4669L120.748 76.1758L119.529 76.1758L119.529 72.9794C119.114 74.099 118.418 74.9568 117.443 75.5528C116.486 76.1306 115.385 76.4196 114.138 76.4196C112.387 76.4196 110.951 75.8868 109.831 74.8214C108.73 73.7378 108.179 72.1396 108.179 70.0268L108.179 61.4669L109.371 61.4669L109.371 69.9455C109.371 71.6972 109.813 73.0426 110.698 73.9816C111.583 74.9026 112.784 75.3631 114.301 75.3631C115.89 75.3631 117.154 74.8575 118.093 73.8462C119.05 72.8349 119.529 71.336 119.529 69.3496L119.529 61.4669L120.748 61.4669ZM135.756 61.1689C137.508 61.1689 138.935 61.7107 140.036 62.7942C141.138 63.8597 141.688 65.4488 141.688 67.5617L141.688 76.1758L140.497 76.1758L140.497 67.643C140.497 65.8913 140.054 64.5549 139.169 63.6339C138.284 62.6949 137.083 62.2253 135.567 62.2253C133.977 62.2253 132.704 62.731 131.747 63.7423C130.808 64.7536 130.339 66.2525 130.339 68.2389L130.339 76.1758L129.12 76.1758L129.12 61.4669L130.339 61.4669L130.339 64.582C130.754 63.4804 131.44 62.6407 132.397 62.0628C133.372 61.4669 134.492 61.1689 135.756 61.1689ZM150.548 58.1892C150.259 58.1892 150.015 58.0989 149.816 57.9183C149.618 57.7197 149.518 57.4578 149.518 57.1328C149.518 56.8258 149.618 56.5729 149.816 56.3743C150.015 56.1756 150.259 56.0763 150.548 56.0763C150.837 56.0763 151.08 56.1756 151.279 56.3743C151.478 56.5729 151.577 56.8258 151.577 57.1328C151.577 57.4578 151.478 57.7197 151.279 57.9183C151.08 58.0989 150.837 58.1892 150.548 58.1892ZM151.144 61.4669L151.144 76.1758L149.925 76.1758L149.925 61.4669L151.144 61.4669ZM161.355 62.5233L161.355 72.248C161.355 73.3315 161.553 74.081 161.951 74.4963C162.348 74.8936 163.052 75.0923 164.064 75.0923L165.716 75.0923L165.716 76.1758L163.874 76.1758C162.592 76.1758 161.644 75.8778 161.03 75.2819C160.434 74.6679 160.136 73.6566 160.136 72.248L160.136 62.5233L157.915 62.5233L157.915 61.4669L160.136 61.4669L160.136 57.7287L161.355 57.7287L161.355 61.4669L165.716 61.4669L165.716 62.5233L161.355 62.5233ZM184.344 61.4669L175.784 83.0833L174.538 83.0833L177.274 76.1758L171.098 61.4669L172.425 61.4669L177.951 74.8214L183.098 61.4669L184.344 61.4669Z" fill="black"/>
<path d="M15.8374 1.05627L15.8374 3.428C15.398 3.37868 14.9562 3.35502 14.514 3.35714C9.83516 3.35714 7.36339 6.49583 7.36339 12.4335L7.36339 18.4629L11.6984 18.4629L11.6984 20.6866L7.35506 20.6866L7.35506 46.711L5 46.711L5 12.1646C5 8.34653 5.98996 5.33706 7.8615 3.46343C9.49545 1.83365 11.7296 1 14.5057 1C14.9892 1 15.4206 1.01876 15.8374 1.05627Z" fill="#282828"/>
<path d="M129.203 1.14795L126.848 1.14795L126.848 46.8152L129.203 46.8152L129.203 1.14795Z" fill="#282828"/>
<path d="M147.468 7.13996C147.163 6.76007 146.936 6.32329 146.801 5.85499C146.667 5.3867 146.626 4.89625 146.682 4.41217C146.739 3.92809 146.891 3.46004 147.13 3.03524C147.368 2.61043 147.689 2.23736 148.074 1.93771C148.458 1.63806 148.898 1.41781 149.368 1.28978C149.839 1.16175 150.329 1.12849 150.813 1.19193C151.296 1.25537 151.762 1.41425 152.183 1.65933C152.604 1.90441 152.972 2.23079 153.266 2.6195L163.687 15.9579C163.766 16.06 163.856 16.1663 163.943 16.2601C162.667 16.4684 161.464 16.9942 160.444 17.7892C159.424 18.5842 158.621 19.6229 158.108 20.8097C158.042 20.6946 157.967 20.5846 157.885 20.4804L147.468 7.13996Z" fill="#282828"/>
<path d="M183.165 40.8882C183.472 41.2674 183.7 41.7039 183.837 42.1722C183.973 42.6405 184.015 43.1313 183.96 43.6159C183.905 44.1006 183.754 44.5694 183.515 44.9951C183.277 45.4208 182.957 45.7948 182.573 46.0954C182.189 46.396 181.748 46.6172 181.278 46.746C180.808 46.8749 180.316 46.9088 179.833 46.8458C179.349 46.7829 178.882 46.6243 178.461 46.3794C178.039 46.1344 177.67 45.8079 177.376 45.419L166.955 32.0807C166.784 31.8575 166.584 31.6578 166.361 31.4867C167.667 31.2868 168.9 30.7549 169.941 29.9418C170.982 29.1287 171.797 28.0617 172.307 26.8433C172.425 27.0935 172.57 27.3298 172.741 27.5477L183.165 40.8882Z" fill="#282828"/>
<path d="M164.21 31.5366C164.019 31.6957 163.846 31.8753 163.693 32.0722L153.273 45.4106C152.672 46.1795 151.79 46.6782 150.822 46.797C149.853 46.9158 148.877 46.645 148.108 46.0442C147.339 45.4433 146.841 44.5617 146.722 43.5932C146.603 42.6246 146.874 41.6486 147.475 40.8797L157.895 27.5413C157.997 27.409 158.09 27.2697 158.173 27.1245C158.723 28.3112 159.567 29.338 160.624 30.1079C161.682 30.8777 162.918 31.3651 164.217 31.5241" fill="#282828"/>
<path d="M166.615 16.3308C166.736 16.2171 166.848 16.0945 166.951 15.964L177.372 2.62561C177.668 2.24559 178.037 1.92778 178.457 1.69033C178.877 1.45288 179.339 1.30043 179.818 1.24169C180.297 1.18296 180.782 1.21908 181.247 1.348C181.712 1.47693 182.147 1.69612 182.527 1.99308C182.907 2.29003 183.224 2.65893 183.462 3.07871C183.699 3.49848 183.852 3.96092 183.911 4.43961C183.969 4.91831 183.933 5.40388 183.804 5.86861C183.675 6.33334 183.456 6.76813 183.159 7.14815L172.739 20.4865C172.587 20.6807 172.456 20.8902 172.349 21.1118C171.875 19.8951 171.101 18.8186 170.098 17.9832C169.094 17.1477 167.895 16.5806 166.613 16.335" fill="#282828"/>
<path d="M170.167 24.015C170.167 24.9739 169.883 25.9113 169.351 26.7088C168.818 27.5063 168.061 28.1279 167.175 28.4952C166.29 28.8624 165.315 28.9587 164.374 28.7719C163.434 28.5851 162.57 28.1235 161.892 27.4457C161.214 26.7678 160.752 25.904 160.564 24.9636C160.377 24.0232 160.473 23.0484 160.84 22.1625C161.207 21.2765 161.828 20.5193 162.625 19.9866C163.423 19.4538 164.36 19.1694 165.319 19.1694C166.604 19.1694 167.837 19.6799 168.746 20.5885C169.655 21.4972 170.166 22.7297 170.167 24.015Z" fill="#FF8500"/>
<path d="M32.2646 18.2837C24.1823 18.2837 18.0925 24.4235 18.0925 32.5662L18.0925 32.6704C18.0925 40.7526 24.1865 46.8424 32.2646 46.8424C40.3426 46.8424 46.4366 40.7047 46.4366 32.562L46.4366 32.4703C46.4366 24.3881 40.3405 18.2983 32.2646 18.2983M44.1816 32.5141L44.1816 32.6183C44.1816 39.4959 39.0817 44.6874 32.3208 44.6874C25.612 44.6874 20.3559 39.3854 20.3559 32.6183L20.3559 32.5141C20.3559 25.6365 25.4536 20.4449 32.2145 20.4449C38.9254 20.4449 44.1816 25.7469 44.1816 32.5141Z" fill="#282828"/>
<path d="M113.301 21.3825C111.274 19.3546 108.31 18.3271 104.494 18.3271C101.299 18.3271 98.3853 19.0587 95.0466 20.6989L94.5693 20.9344L95.4405 22.8935L95.9553 22.6454C99.0523 21.1553 101.67 20.4905 104.442 20.4905C110.58 20.4905 113.82 23.5354 113.82 29.2959L113.82 30.7277C110.798 29.7953 107.653 29.3197 104.49 29.3167C97.0307 29.3167 92.208 32.818 92.208 38.2326L92.208 38.3389C92.208 44.1411 97.5934 46.7817 102.597 46.7817C108.156 46.7817 111.976 44.1744 113.82 41.6005L113.82 46.8504L116.036 46.8504L116.036 29.2417C116.036 25.8925 115.09 23.1748 113.297 21.3825M113.82 32.9952L113.82 35.9734C113.82 40.1312 109.55 44.6183 102.649 44.6183C98.8793 44.6183 94.4776 42.9615 94.4776 38.2868L94.4776 38.1805C94.4776 33.2411 99.6775 31.4821 104.544 31.4821C108.004 31.4821 110.955 31.9636 113.82 32.9952Z" fill="#282828"/>
<path d="M71.1459 20.4865C73.6053 20.4607 76.0075 21.2281 77.9964 22.6749L78.034 22.7019L81.4061 22.7019L81.1539 22.4664C79.3178 20.6929 76.2854 18.3315 71.196 18.3315C63.5076 18.3315 57.249 24.7048 57.249 32.5369L57.249 32.637C57.249 40.4753 63.4847 46.8507 71.1459 46.8507C75.0203 46.8507 78.2924 45.4793 81.1497 42.6574L81.3936 42.4156L78.0423 42.4156L78.0048 42.4427C76.0452 43.9219 73.651 44.7104 71.196 44.6853C64.756 44.6853 59.5249 39.2665 59.5249 32.5869L59.5249 32.4869C59.5249 25.7594 64.6331 20.4907 71.1543 20.4907" fill="#282828"/>
</svg>
