<svg width="23" height="23" viewBox="0 0 23 23" fill="none" xmlns="http://www.w3.org/2000/svg">
<path d="M11.5408 2.20488C6.55869 2.22921 2.53913 6.28821 2.56346 11.2703C2.58545 15.7724 5.90222 19.488 10.2191 20.1463L10.1883 13.8415L7.89665 13.8527L7.88391 11.2443L10.1756 11.2331L10.1659 9.24554C10.1548 6.98275 11.4957 5.72839 13.5555 5.71833C14.5426 5.71351 15.5774 5.88439 15.5774 5.88439L15.5882 8.10297L14.4478 8.10854C13.329 8.11401 12.9824 8.81224 12.9859 9.5259L12.9941 11.2176L15.4942 11.2054L15.1073 13.8157L13.0069 13.8259L13.0377 20.1307C17.3479 19.4339 20.6282 15.6852 20.6062 11.1822C20.5819 6.2001 16.5229 2.18055 11.5408 2.20488Z" fill="white"/>
</svg>
