<svg width="23" height="22" viewBox="0 0 23 22" fill="none" xmlns="http://www.w3.org/2000/svg">
<path d="M20.2384 9.1602L19.5116 9.16375L19.5115 9.12631L11.3914 9.16596L11.409 12.7749L16.508 12.75C15.7743 14.8545 13.7828 16.3723 11.4266 16.3838C8.43711 16.3984 6.00144 13.9864 5.98684 10.9969C5.97224 8.00732 8.38424 5.57164 11.3738 5.55705C12.7537 5.55031 14.0117 6.06476 14.9718 6.91044L17.5113 4.34603C15.8926 2.85214 13.7326 1.93652 11.3562 1.94813C6.37359 1.97246 2.35359 6.03192 2.37792 11.0145C2.40225 15.997 6.46171 20.017 11.4443 19.9927C16.4268 19.9684 20.4468 15.9089 20.4225 10.9264C20.4196 10.3214 20.3544 9.73121 20.2384 9.1602Z" fill="#FFC107"/>
<path d="M3.39764 6.80999L6.37253 8.96943C7.16491 6.97971 9.10056 5.56816 11.3737 5.55706C12.7537 5.55032 14.0117 6.06478 14.9717 6.91046L17.5112 4.34604C15.8925 2.85215 13.7326 1.93654 11.3561 1.94814C7.89064 1.96507 4.89487 3.93623 3.39764 6.80999Z" fill="#FF3D00"/>
<path d="M11.4442 19.9927C13.7747 19.9813 15.8879 19.0791 17.4818 17.621L14.6779 15.2717C13.7451 15.9883 12.6029 16.379 11.4266 16.3838C9.07992 16.3953 7.08004 14.9086 6.31918 12.8241L3.38808 15.1053C4.89554 18.0199 7.93772 20.0098 11.4442 19.9927Z" fill="#4CAF50"/>
<path d="M20.2383 9.1602L19.5116 9.16374L19.5114 9.1263L11.3914 9.16595L11.409 12.7749L16.5079 12.75C16.157 13.7516 15.5203 14.6284 14.6765 15.2721L14.6778 15.2712L17.4818 17.6205C17.2851 17.801 20.4445 15.4375 20.4225 10.9264C20.4195 10.3214 20.3544 9.7312 20.2383 9.1602Z" fill="#1976D2"/>
</svg>
