<svg width="19" height="17" viewBox="0 0 19 17" fill="none" xmlns="http://www.w3.org/2000/svg">
<path opacity="0.4" d="M18.759 11.7424C18.7713 14.2596 16.7602 16.3085 14.2431 16.3299L14.234 16.3299L5.29295 16.3736C2.78475 16.3858 0.726775 14.3658 0.714482 11.8486L0.714438 11.8396C0.714438 11.8396 0.700351 7.84627 0.697761 5.83787C0.696822 5.46073 1.12886 5.2475 1.42504 5.48064C3.57704 7.17087 7.42575 10.2531 7.47377 10.2935C8.11686 10.8037 8.93028 11.0894 9.76033 11.0853C10.5904 11.0813 11.401 10.7877 12.039 10.2613C12.0867 10.2294 15.8198 7.20311 17.9876 5.46382C18.2824 5.22689 18.7183 5.43589 18.721 5.81211C18.7398 7.80509 18.759 11.7424 18.759 11.7424" fill="#FF8500"/>
<path d="M18.2411 2.48186C17.4525 1.01324 15.9106 0.0806237 14.218 0.0888891L5.21372 0.13286C3.52114 0.141125 1.98833 1.08876 1.21419 2.56501C1.04077 2.89518 1.12578 3.30529 1.41834 3.53664L8.14355 8.86226C8.61456 9.23891 9.18389 9.4247 9.75229 9.42192C9.7559 9.42191 9.75861 9.42189 9.76131 9.42188C9.76402 9.42187 9.76763 9.42185 9.77034 9.42184C10.3387 9.41906 10.9062 9.22772 11.3735 8.84649L18.0464 3.45544C18.3367 3.22124 18.4177 2.81032 18.2411 2.48186" fill="#FF8500"/>
</svg>
