<svg width="22" height="23" viewBox="0 0 22 23" fill="none" xmlns="http://www.w3.org/2000/svg">
<path fill-rule="evenodd" clip-rule="evenodd" d="M4.126 3.58076L19.5105 18.8158L19.5121 18.8142L19.5137 18.8157L18.244 20.0979L15.2005 17.0841C14.0691 17.6185 12.6962 17.9733 11.0422 17.9814C4.19245 18.0149 2.1047 12.0549 2.08466 11.9945L1.98905 11.7099L2.08278 11.4243C2.0945 11.3861 2.90871 8.98547 5.23367 7.21406L2.85786 4.86134L4.126 3.58076ZM13.8161 15.7131L12.1867 14.0995C11.8339 14.2723 11.4395 14.3705 11.0246 14.3725C9.5431 14.3797 8.31189 13.1605 8.30465 11.679C8.30263 11.2641 8.39692 10.8687 8.56631 10.5143L6.51732 8.48524C4.92813 9.58959 4.16522 11.0765 3.89868 11.7005C4.35425 12.7395 6.23147 16.2004 11.0334 16.177C12.1016 16.1717 13.0235 15.9955 13.8161 15.7131Z" fill="#9D9FA0"/>
<path d="M8.72627 5.59677C9.41202 5.44314 10.1618 5.3542 10.9805 5.3502C17.8302 5.31675 19.918 11.2768 19.938 11.3371L20.0336 11.6217L19.9399 11.9073C19.9308 11.9372 19.4331 13.4049 18.1107 14.89L16.849 13.6405C17.5545 12.8335 17.9478 12.0437 18.124 11.6311C17.6684 10.5921 15.7912 7.13121 10.9893 7.15466C10.7615 7.15577 10.5404 7.16466 10.3257 7.1807L8.72627 5.59677Z" fill="#9D9FA0"/>
</svg>
