<svg width="23" height="23" viewBox="0 0 23 23" fill="none" xmlns="http://www.w3.org/2000/svg">
<path fill-rule="evenodd" clip-rule="evenodd" d="M13.582 12.2379C15.0783 10.1164 14.8689 7.16341 12.9629 5.27598C10.8386 3.17225 7.411 3.18899 5.30727 5.31336C3.20354 7.43774 3.22028 10.8653 5.34466 12.969C7.25061 14.8565 10.2055 15.037 12.3123 13.5201L17.4942 18.6516L18.7639 17.3694L13.582 12.2379ZM11.6932 6.55815C13.1095 7.96064 13.1206 10.2457 11.7182 11.6619C10.3157 13.0782 8.03062 13.0893 6.61437 11.6869C5.19812 10.2844 5.18696 7.99933 6.58945 6.58308C7.99194 5.16683 10.277 5.15567 11.6932 6.55815Z" fill="white"/>
</svg>
