<svg width="13" height="10" viewBox="0 0 13 10" fill="none" xmlns="http://www.w3.org/2000/svg">
<path fill-rule="evenodd" clip-rule="evenodd" d="M3.33666 0.929559L6.82359 0.912531C8.28169 0.905411 9.30458 1.89802 9.31156 3.32765L9.33164 7.43874C9.33862 8.86837 8.32547 9.87093 6.86737 9.87805L3.38044 9.89507C1.92234 9.90219 0.899445 8.90958 0.892463 7.47995L0.872388 3.36886C0.865406 1.93923 1.87856 0.936679 3.33666 0.929559ZM11.6785 2.31078C11.9422 2.17599 12.2523 2.18844 12.5053 2.34497C12.7583 2.5009 12.9102 2.77323 12.9116 3.07178L12.934 7.65981C12.9355 7.95897 12.7863 8.23216 12.5348 8.39055C12.3974 8.47678 12.2435 8.52123 12.0882 8.52198C11.9587 8.52262 11.8291 8.49291 11.7078 8.43221L10.8141 7.98996C10.4833 7.82531 10.277 7.49256 10.2752 7.12181L10.2582 3.63512C10.2564 3.26375 10.4594 2.92901 10.7885 2.76235L11.6785 2.31078Z" fill="white"/>
</svg>
